<?xml version="1.0" encoding="UTF-8"?>
<svg id="Camada_2" data-name="Camada 2" xmlns="http://www.w3.org/2000/svg" viewBox="0 0 635.34 559.16">
  <defs>
    <style>
      .cls-1 {
        fill: red;
      }
    </style>
  </defs>
  <g id="Camada_1-2" data-name="Camada 1">
    <path d="m212.6,219.01c-2.15-15.98-5.03-36.11-7.06-50.19-4.91-34.09-10.75-73.28-11.28-75.02-.65-2.17-2.95-6.65-5.9-6.65-.86,0-2.08.38-3.02,2.19-1.03,1.98-4.95,18.76-11.3,46.16-4.73,20.43-10.61,45.81-11.71,48.07-1.74,2.01-13.51,14.95-17.4,19.23l-1.46-2.69h-6.6c1.66-7.53,12.27-59.47-1.83-100.99-.04-26.81-6.8-38.93-13.34-50.65-6.59-11.81-12.82-22.97-12.82-48.48h-2.62c0,25.52-6.23,36.67-12.82,48.48-6.54,11.72-13.3,23.84-13.34,50.65-14.1,41.52-3.49,93.46-1.83,100.99h-6.47l-1.46,2.69c-3.89-4.27-15.67-17.23-17.4-19.23-1.1-2.26-6.98-27.65-11.71-48.08-6.34-27.4-10.27-44.17-11.3-46.15-.94-1.81-2.16-2.19-3.02-2.19-2.95,0-5.25,4.48-5.9,6.65-.52,1.74-6.36,40.93-11.28,75.02-2.03,14.08-4.9,34.22-7.06,50.19-3.16,23.45-2.97,23.64-2.33,24.28.98.98,39.87,41.08,44.42,45.77-.5,4.62-3.67,34.2-4.77,56.87-1.11,22.77,11.51,66.19,14,74.5-1.53.38-4.33,1.09-8.19,2.09l-1.26.33.32,1.26c6.02,23.64,62.76,135.06,62.76,135.06,0,0,56.74-111.42,62.76-135.06l.32-1.26-1.26-.33c-3.86-1-6.66-1.71-8.19-2.09,2.49-8.31,15.12-51.72,14.01-74.5-1.11-22.67-4.27-52.25-4.77-56.87,4.55-4.69,43.44-44.78,44.42-45.77.64-.63.83-.83-2.34-24.28Z"/>
    <g>
      <g>
        <g>
          <path d="m114.19,344.21v-13.99h-13.82v-100.17h13.82v-14.16h86.51v31.22h-55.46v10.42h55.46v86.68h-86.51Zm41.64-31.05v-24.58h-10.59v24.58h10.59Z"/>
          <polygon points="266.92 344.21 266.92 316.39 242.51 316.39 242.51 344.21 211.46 344.21 211.46 285.34 225.28 285.34 225.28 243.87 239.1 243.87 239.1 215.89 284.15 215.89 284.15 243.87 297.97 243.87 297.97 285.34 311.8 285.34 311.8 344.21 266.92 344.21"/>
          <polygon points="391.83 344.21 391.83 316.39 353.6 316.39 353.6 344.21 322.55 344.21 322.55 215.89 367.42 215.89 367.42 243.7 391.83 243.7 391.83 215.89 436.71 215.89 436.71 344.21 391.83 344.21"/>
          <polygon points="447.46 344.21 447.46 215.89 533.98 215.89 533.98 246.94 492.34 246.94 492.34 257.53 520.16 257.53 520.16 288.58 492.34 288.58 492.34 313.16 533.98 313.16 533.98 344.21 447.46 344.21"/>
          <path d="m114.67,491.79v-14.48h-14.3v-103.07h14.3v-14.65h74.63v14.65h14.3v103.07h-14.3v14.48h-74.63Zm43.09-31.54v-68.93h-11.54v68.93h11.54Z"/>
          <polygon points="243.92 491.79 243.92 462.84 229.62 462.84 229.62 419.92 215.32 419.92 215.32 359.6 261.16 359.6 261.16 402.69 272.88 402.69 272.88 359.6 318.73 359.6 318.73 419.92 304.42 419.92 304.42 462.84 290.12 462.84 290.12 491.79 243.92 491.79"/>
          <polygon points="330.27 491.79 330.27 359.6 419.2 359.6 419.2 391.14 376.11 391.14 376.11 402.69 404.9 402.69 404.9 434.23 376.11 434.23 376.11 460.25 419.2 460.25 419.2 491.79 330.27 491.79"/>
          <path d="m488.13,491.79v-43.09h-11.54v43.09h-45.85v-132.19h88.93v14.48h14.3v117.71h-45.85Zm0-74.63v-26.02h-11.54v26.02h11.54Z"/>
        </g>
        <g>
          <path class="cls-1" d="m169.65,321.55v-13.99h-13.49v13.99h-41.97v-13.99h-13.82v-83.28h13.82v-14.16h69.62v14.32h-55.46v82.94h27.48v-41.47h-13.82v-14.16h41.81v69.79h-14.16Z"/>
          <path class="cls-1" d="m266.92,321.55v-27.81h-41.31v27.81h-14.16v-41.97h13.82v-41.47h13.82v-27.98h28.15v27.98h13.82v41.47h13.82v41.97h-27.98Zm-13.82-83.11h-13.66v41.14h13.66v-41.14Z"/>
          <path class="cls-1" d="m391.83,321.55v-55.63h-13.66v27.81h-27.98v-27.81h-13.49v55.63h-14.16v-111.43h27.98v27.81h13.74v27.81h13.57v-27.81h13.99v-27.81h27.98v111.43h-27.98Z"/>
          <path class="cls-1" d="m447.46,321.55v-111.43h69.62v14.16h-41.64v27.48h27.81v14.16h-27.81v41.47h41.64v14.16h-69.62Z"/>
          <path class="cls-1" d="m172.4,454.66v14.48h-57.73v-14.48h-14.3v-86.17h14.3v-14.65h57.73v14.65h14.3v86.17h-14.3Zm-14.65-86h-28.44v85.83h28.44v-85.83Z"/>
          <path class="cls-1" d="m287.53,397.27v42.91h-14.3v28.95h-29.3v-28.95h-14.3v-42.91h-14.3v-43.43h28.95v43.09h14.39v42.91h14.22v-86h28.95v43.43h-14.3Z"/>
          <path class="cls-1" d="m330.27,469.14v-115.3h72.04v14.65h-43.09v28.44h28.78v14.65h-28.78v42.91h43.09v14.65h-72.04Z"/>
          <path class="cls-1" d="m488.13,469.14v-43.09h-14.3v-14.65h14.3v-42.91h-28.44v100.65h-28.95v-115.3h72.04v14.48h14.3v43.26h-14.3v14.13h14.3v43.43h-28.95Z"/>
        </g>
      </g>
      <path d="m566.05,422.92v-207.03h69.29v207.03h-69.29Zm0,68.87v-35.06h69.29v35.06h-69.29Z"/>
      <path class="cls-1" d="m548.94,404.48v-194.35h65.04v194.35h-65.04Zm0,64.66v-32.91h65.04v32.91h-65.04Z"/>
    </g>
  </g>
</svg>